<?xml version="1.0" encoding="UTF-8"?>
<svg id="Layer_2" data-name="Layer 2" xmlns="http://www.w3.org/2000/svg" viewBox="0 0 317.25 326.92">
  <defs>
    <style>
      .cls-1 {
        fill: #231f20;
      }
    </style>
  </defs>
  <g id="Layer_1-2" data-name="Layer 1">
    <g>
      <g>
        <polygon points="260.53 253.27 260.53 104.87 165.87 251.29 104.98 157.2 138.19 105.53 166.22 146.77 260.86 0 316.26 0 317.25 .99 317.25 252.28 316.26 253.27 260.53 253.27"/>
        <polygon points="56.72 0 56.72 94.98 118.39 0 184.68 0 184.06 2.35 56.72 199.52 56.72 253.27 .99 253.27 0 252.28 0 .99 .99 0 56.72 0"/>
      </g>
      <g>
        <path class="cls-1" d="M2.36,285.28v-16.65c0-.54-.06-.97-.17-1.29s-.26-.53-.44-.64-.37-.21-.57-.31-.39-.19-.57-.28-.33-.27-.44-.55-.17-.64-.17-1.1c0-.31.12-.59.35-.86s.51-.4.83-.4h8.44c.32,0,.59.13.82.4s.35.56.35.86c0,.46-.06.83-.17,1.1s-.26.46-.43.55-.36.18-.57.28-.39.2-.57.31-.32.32-.43.64-.17.75-.17,1.29v7.62l4.03-2.78c.73-.42,1.43-.92,2.09-1.49s1.23-1.17,1.7-1.81.78-1.26.94-1.87.11-1.16-.16-1.66c-.13-.84.28-1.63,1.23-2.35s1.94-1.08,2.97-1.08c.91,0,1.55.33,1.94,1,.35.59.53,1.21.56,1.87s-.09,1.31-.35,1.95-.61,1.27-1.04,1.9-.94,1.24-1.54,1.84-1.21,1.16-1.82,1.67-1.26,1-1.94,1.46l-2.17,1.48,6.77,8.92c.5.67,1.03,1.2,1.59,1.6s1,.67,1.32.79.59.32.81.59.33.67.33,1.18c0,.31-.13.59-.4.86s-.57.4-.9.4h-4.76c-.69,0-1.23-.09-1.61-.26s-.76-.51-1.13-1.01l-7.04-9.61-1.4.94v4.51c0,.54.06.97.17,1.29s.26.53.43.64.36.21.57.31.39.19.57.28.32.27.43.55.17.64.17,1.1c0,.31-.12.59-.35.86s-.51.4-.82.4H1.19c-.32,0-.6-.13-.83-.4s-.35-.56-.35-.86c0-.46.06-.83.17-1.1s.26-.46.44-.55.37-.18.57-.28.39-.2.57-.31.33-.32.44-.64.17-.75.17-1.29Z"/>
        <path class="cls-1" d="M29.07,285.28v-16.65c0-.54-.06-.97-.17-1.29s-.26-.53-.44-.64-.37-.21-.57-.31-.39-.19-.57-.28-.33-.27-.44-.55-.17-.64-.17-1.1c0-.31.12-.59.35-.86s.51-.4.83-.4h8.44c.32,0,.59.13.82.4s.35.56.35.86c0,.46-.06.83-.17,1.1s-.26.46-.43.55-.36.18-.57.28-.39.2-.57.31-.32.32-.43.64-.17.75-.17,1.29v16.65c0,.54.06.97.17,1.29s.26.53.43.64.36.21.57.31.39.19.57.28.32.27.43.55.17.64.17,1.1c0,.31-.12.59-.35.86s-.51.4-.82.4h-8.44c-.32,0-.6-.13-.83-.4s-.35-.56-.35-.86c0-.46.06-.83.17-1.1s.26-.46.44-.55.37-.18.57-.28.39-.2.57-.31.33-.32.44-.64.17-.75.17-1.29Z"/>
        <path class="cls-1" d="M40.27,263.2h11.03c2.01,0,3.72.14,5.13.43s2.65.77,3.71,1.45,1.85,1.61,2.37,2.81.78,2.68.78,4.44c0,2.29-.7,4.18-2.09,5.67s-3.36,2.49-5.89,3c.74.91,1.54,1.65,2.4,2.22s1.66.85,2.4.85c.45,0,.81-.09,1.09-.27.59-.09,1.17.12,1.74.61s1,1.1,1.3,1.79.41,1.41.34,2.14-.38,1.25-.93,1.57c-.88.52-1.94.79-3.18.79-1.6,0-3.22-.45-4.85-1.35s-2.95-2.06-3.93-3.48l-3.11-4.47h-1.02v3.91c0,.54.06.97.17,1.29s.26.53.43.63.36.2.57.3.39.19.57.27.32.26.43.54.17.64.17,1.1c0,.31-.12.59-.35.86s-.51.4-.82.4h-8.44c-.32,0-.6-.13-.83-.4s-.35-.56-.35-.86c0-.46.06-.83.17-1.1s.26-.45.44-.54.37-.17.57-.27.39-.2.57-.3.33-.31.44-.63.17-.75.17-1.29v-16.69c0-.54-.06-.97-.17-1.29s-.26-.53-.44-.64-.37-.21-.57-.31-.39-.19-.57-.28-.33-.27-.44-.55-.17-.64-.17-1.1c0-.31.12-.59.35-.86s.51-.4.83-.4ZM47.54,266.94v10.72h3.3c1.04,0,1.99-.19,2.87-.56s1.61-.98,2.21-1.81.89-1.85.89-3.02c0-1.84-.49-3.19-1.48-4.05s-2.47-1.29-4.45-1.29h-3.34Z"/>
        <path class="cls-1" d="M67.99,285.28v-16.65c0-.54-.06-.97-.17-1.29s-.26-.53-.44-.64-.37-.21-.57-.31-.39-.19-.57-.28-.33-.27-.44-.55-.17-.64-.17-1.1c0-.31.12-.59.35-.86s.51-.4.83-.4h8.44c.32,0,.59.13.82.4s.35.56.35.86c0,.46-.06.83-.17,1.1s-.26.46-.43.55-.36.18-.57.28-.39.2-.57.31-.32.32-.43.64-.17.75-.17,1.29v16.65c0,.54.06.97.17,1.29s.26.53.43.64.36.21.57.31.39.19.57.28.32.27.43.55.17.64.17,1.1c0,.31-.12.59-.35.86s-.51.4-.82.4h-8.44c-.32,0-.6-.13-.83-.4s-.35-.56-.35-.86c0-.46.06-.83.17-1.1s.26-.46.44-.55.37-.18.57-.28.39-.2.57-.31.33-.32.44-.64.17-.75.17-1.29Z"/>
        <path class="cls-1" d="M80.37,285.28v-16.65c0-.54-.06-.97-.17-1.29s-.26-.53-.44-.64-.37-.21-.57-.31-.39-.19-.57-.28-.33-.27-.44-.55-.17-.64-.17-1.1c0-.31.12-.59.35-.86s.51-.4.83-.4h8.44c.32,0,.59.13.82.4s.35.56.35.86c0,.46-.06.83-.17,1.1s-.26.46-.43.55-.36.18-.57.28-.39.2-.57.31-.32.32-.43.64-.17.75-.17,1.29v7.62l4.03-2.78c.73-.42,1.43-.92,2.09-1.49s1.23-1.17,1.7-1.81.78-1.26.94-1.87.11-1.16-.16-1.66c-.13-.84.28-1.63,1.23-2.35s1.94-1.08,2.97-1.08c.91,0,1.55.33,1.94,1,.35.59.53,1.21.56,1.87s-.09,1.31-.35,1.95-.61,1.27-1.04,1.9-.94,1.24-1.54,1.84-1.21,1.16-1.82,1.67-1.26,1-1.94,1.46l-2.17,1.48,6.77,8.92c.5.67,1.03,1.2,1.59,1.6s1,.67,1.32.79.59.32.81.59.33.67.33,1.18c0,.31-.13.59-.4.86s-.57.4-.9.4h-4.76c-.69,0-1.23-.09-1.61-.26s-.76-.51-1.13-1.01l-7.04-9.61-1.4.94v4.51c0,.54.06.97.17,1.29s.26.53.43.64.36.21.57.31.39.19.57.28.32.27.43.55.17.64.17,1.1c0,.31-.12.59-.35.86s-.51.4-.82.4h-8.44c-.32,0-.6-.13-.83-.4s-.35-.56-.35-.86c0-.46.06-.83.17-1.1s.26-.46.44-.55.37-.18.57-.28.39-.2.57-.31.33-.32.44-.64.17-.75.17-1.29Z"/>
        <path class="cls-1" d="M117.65,263.01c4.31,0,7.73,1.29,10.26,3.87s3.8,6.05,3.8,10.41c0,2.01-.38,3.87-1.13,5.58s-1.78,3.15-3.09,4.32-2.85,2.08-4.63,2.73-3.69.99-5.73.99-3.83-.34-5.57-1.01-3.25-1.6-4.52-2.78-2.27-2.63-3.01-4.33-1.11-3.54-1.11-5.51c0-2.78.64-5.25,1.92-7.42s3.03-3.86,5.27-5.05,4.75-1.79,7.55-1.8ZM117.53,266.35c-5.42,0-8.13,3.63-8.13,10.9,0,1.1.07,2.12.2,3.06s.38,1.87.74,2.78.82,1.69,1.39,2.33,1.31,1.16,2.24,1.55,1.99.59,3.2.59c5.37,0,8.06-3.42,8.06-10.25,0-.88-.02-1.68-.07-2.38s-.13-1.45-.27-2.23-.31-1.47-.54-2.06-.53-1.17-.92-1.74-.85-1.02-1.38-1.38-1.18-.65-1.95-.86-1.62-.33-2.57-.33Z"/>
        <path class="cls-1" d="M170.6,271.58l-6.52,16.61c-.22.52-.38.9-.48,1.12s-.25.47-.43.73-.39.44-.6.53-.49.13-.81.13-.56-.03-.76-.1-.4-.24-.59-.54-.33-.5-.38-.62-.2-.47-.43-1.05c-.04-.09-.07-.16-.1-.21l-6.56-16.61v13.7c0,.54.06.97.17,1.29s.26.53.43.64.36.21.57.31.39.19.57.28.32.27.43.55.17.64.17,1.1c0,.31-.12.59-.35.86s-.51.4-.82.4h-8.44c-.32,0-.6-.13-.83-.4s-.35-.56-.35-.86c0-.46.06-.83.17-1.1s.26-.46.44-.55.37-.18.57-.28.39-.2.57-.31.33-.32.44-.64.17-.75.17-1.29v-16.65c0-.54-.06-.97-.17-1.29s-.26-.53-.44-.64-.37-.21-.57-.31-.39-.19-.57-.28-.33-.27-.44-.55-.17-.64-.17-1.1c0-.31.12-.59.35-.86s.51-.4.83-.4h6.91c.4,0,.73.13,1,.38s.46.55.58.88l7.62,19.38,7.64-19.38c.12-.33.31-.63.58-.88s.6-.38,1-.38h6.91c.32,0,.59.13.82.4s.35.56.35.86c0,.46-.06.83-.17,1.1s-.26.46-.43.55-.36.18-.57.28-.39.2-.57.31-.32.32-.43.64-.17.75-.17,1.29v16.65c0,.54.06.97.17,1.29s.26.53.43.64.36.21.57.31.39.19.57.28.32.27.43.55.17.64.17,1.1c0,.31-.12.59-.35.86s-.51.4-.82.4h-8.44c-.32,0-.6-.13-.83-.4s-.35-.56-.35-.86c0-.46.06-.83.17-1.1s.26-.46.44-.55.37-.18.57-.28.39-.2.57-.31.33-.32.44-.64.17-.75.17-1.29v-13.7Z"/>
        <path class="cls-1" d="M195.19,263.01c4.31,0,7.73,1.29,10.26,3.87s3.8,6.05,3.8,10.41c0,2.01-.38,3.87-1.13,5.58s-1.78,3.15-3.09,4.32-2.85,2.08-4.63,2.73-3.69.99-5.73.99-3.83-.34-5.57-1.01-3.25-1.6-4.52-2.78-2.27-2.63-3.01-4.33-1.11-3.54-1.11-5.51c0-2.78.64-5.25,1.92-7.42s3.03-3.86,5.27-5.05,4.75-1.79,7.55-1.8ZM195.08,266.35c-5.42,0-8.13,3.63-8.13,10.9,0,1.1.07,2.12.2,3.06s.38,1.87.74,2.78.82,1.69,1.39,2.33,1.31,1.16,2.24,1.55,1.99.59,3.2.59c5.37,0,8.06-3.42,8.06-10.25,0-.88-.02-1.68-.07-2.38s-.13-1.45-.27-2.23-.31-1.47-.54-2.06-.53-1.17-.92-1.74-.85-1.02-1.38-1.38-1.18-.65-1.95-.86-1.62-.33-2.57-.33Z"/>
        <path class="cls-1" d="M220.81,285.28v-18.34h-4.36c-.46,0-.85.04-1.18.13s-.57.2-.74.34-.31.28-.44.45-.25.34-.35.51-.24.33-.38.46-.36.25-.63.34-.62.13-1.03.13c-.31,0-.59-.12-.86-.35s-.4-.51-.4-.83v-3.34c0-.37.17-.73.51-1.06s.69-.51,1.06-.51h23.69c.37,0,.73.17,1.06.51s.51.69.51,1.06v3.34c0,.32-.13.6-.39.83s-.55.35-.85.35c-.41,0-.75-.04-1.03-.13s-.49-.2-.63-.34-.27-.29-.38-.46-.23-.34-.35-.51-.27-.32-.44-.45-.41-.25-.74-.34-.72-.13-1.18-.13h-4.36v18.34c0,.54.06.97.17,1.29s.26.53.43.64.36.21.57.31.39.19.57.28.32.27.43.55.17.64.17,1.1c0,.31-.12.59-.35.86s-.51.4-.82.4h-8.44c-.32,0-.6-.13-.83-.4s-.35-.56-.35-.86c0-.46.06-.83.17-1.1s.26-.46.44-.55.37-.18.57-.28.39-.2.57-.31.33-.32.44-.64.17-.75.17-1.29Z"/>
        <path class="cls-1" d="M253.17,263.01c4.31,0,7.73,1.29,10.26,3.87s3.8,6.05,3.8,10.41c0,2.01-.38,3.87-1.13,5.58s-1.78,3.15-3.09,4.32-2.85,2.08-4.63,2.73-3.69.99-5.73.99-3.83-.34-5.57-1.01-3.25-1.6-4.52-2.78-2.27-2.63-3.01-4.33-1.11-3.54-1.11-5.51c0-2.78.64-5.25,1.92-7.42s3.03-3.86,5.27-5.05,4.75-1.79,7.55-1.8ZM253.06,266.35c-5.42,0-8.13,3.63-8.13,10.9,0,1.1.07,2.12.2,3.06s.38,1.87.74,2.78.82,1.69,1.39,2.33,1.31,1.16,2.24,1.55,1.99.59,3.2.59c5.37,0,8.06-3.42,8.06-10.25,0-.88-.02-1.68-.07-2.38s-.13-1.45-.27-2.23-.31-1.47-.54-2.06-.53-1.17-.92-1.74-.85-1.02-1.38-1.38-1.18-.65-1.95-.86-1.62-.33-2.57-.33Z"/>
        <path class="cls-1" d="M269.81,263.2h11.03c2.01,0,3.72.14,5.13.43s2.65.77,3.71,1.45,1.85,1.61,2.37,2.81.78,2.68.78,4.44c0,2.29-.7,4.18-2.09,5.67s-3.36,2.49-5.89,3c.74.91,1.54,1.65,2.4,2.22s1.66.85,2.4.85c.45,0,.81-.09,1.09-.27.59-.09,1.17.12,1.74.61s1,1.1,1.3,1.79.41,1.41.34,2.14-.38,1.25-.93,1.57c-.88.52-1.94.79-3.18.79-1.6,0-3.22-.45-4.85-1.35s-2.95-2.06-3.93-3.48l-3.11-4.47h-1.02v3.91c0,.54.06.97.17,1.29s.26.53.43.63.36.2.57.3.39.19.57.27.32.26.43.54.17.64.17,1.1c0,.31-.12.59-.35.86s-.51.4-.82.4h-8.44c-.32,0-.6-.13-.83-.4s-.35-.56-.35-.86c0-.46.06-.83.17-1.1s.26-.45.44-.54.37-.17.57-.27.39-.2.57-.3.33-.31.44-.63.17-.75.17-1.29v-16.69c0-.54-.06-.97-.17-1.29s-.26-.53-.44-.64-.37-.21-.57-.31-.39-.19-.57-.28-.33-.27-.44-.55-.17-.64-.17-1.1c0-.31.12-.59.35-.86s.51-.4.83-.4ZM277.08,266.94v10.72h3.3c1.04,0,1.99-.19,2.87-.56s1.61-.98,2.21-1.81.89-1.85.89-3.02c0-1.84-.49-3.19-1.48-4.05s-2.47-1.29-4.45-1.29h-3.34Z"/>
        <path class="cls-1" d="M317.25,282.5c0,1.15-.2,2.22-.59,3.19s-.99,1.86-1.8,2.66-1.93,1.42-3.36,1.87-3.1.68-5.02.68c-1.28,0-2.57-.16-3.87-.47s-2.51-.77-3.64-1.36-2.04-1.38-2.75-2.36-1.06-2.07-1.06-3.27c0-.87.34-1.54,1.01-2.02s1.46-.72,2.37-.72c.84,0,1.57.2,2.19.61s.92.98.92,1.71c-.31,1.16.11,2.21,1.24,3.15s2.5,1.4,4.12,1.4c.97,0,1.84-.35,2.61-1.04s1.15-1.47,1.15-2.34c0-.55-.17-1.04-.51-1.46s-.8-.77-1.37-1.06-1.23-.55-1.98-.8-1.53-.5-2.35-.76-1.65-.53-2.47-.82-1.61-.65-2.35-1.09-1.4-.94-1.98-1.5-1.03-1.26-1.37-2.1-.51-1.79-.51-2.84c0-1.28.19-2.43.56-3.44s.97-1.93,1.78-2.75,1.95-1.45,3.39-1.9,3.16-.67,5.15-.67c3.34,0,5.82.53,7.43,1.59s2.43,2.52,2.43,4.37c0,.87-.33,1.54-1,2.01s-1.45.71-2.34.71-1.59-.2-2.21-.6-.92-.96-.92-1.68c.17-.59.04-1.13-.37-1.61s-.95-.85-1.59-1.09-1.29-.36-1.93-.36c-1.29,0-2.33.37-3.11,1.12s-1.17,1.71-1.17,2.89c0,.73.28,1.36.85,1.9s1.3.98,2.2,1.32,1.89.68,2.97,1,2.17.69,3.25,1.1,2.07.9,2.96,1.44,1.62,1.27,2.19,2.19.84,1.98.84,3.19Z"/>
        <path class="cls-1" d="M11.66,310l9.59,7.42c.68-1.59,1.09-3.15,1.23-4.68.14-1.37.72-2.05,1.73-2.05.01,0,.18.03.5.1.5.12.88.38,1.13.79s.36.88.33,1.4c-.15,2.62-.7,4.96-1.65,7,.49.38,1.22.95,2.21,1.71s1.72,1.32,2.21,1.71c.41.32.64.74.7,1.25s-.07.97-.39,1.38c-.35.47-.82.71-1.42.71-.45,0-.84-.13-1.17-.38l-4.16-3.22c-2.29,2.53-5.46,3.8-9.52,3.8-2.12,0-4.05-.27-5.77-.82s-3.13-1.38-4.2-2.51-1.61-2.47-1.61-4.02c0-.93.08-1.73.24-2.4s.46-1.33.9-2,1.09-1.28,1.95-1.85,1.95-1.13,3.28-1.68c-.67-.58-1.19-1.06-1.57-1.46s-.76-.85-1.14-1.36-.65-1.05-.82-1.6-.25-1.17-.25-1.83c0-1.68.86-3.16,2.59-4.44s3.85-1.93,6.37-1.93c3.33,0,5.75.53,7.27,1.58s2.28,2.52,2.28,4.38c0,.87-.33,1.54-1,2.01s-1.45.71-2.34.71c-.84,0-1.58-.2-2.21-.61s-.94-.97-.94-1.67c.27-1.04.07-1.81-.6-2.31s-1.56-.76-2.66-.76-2,.26-2.66.77-1.03,1.14-1.1,1.9.12,1.59.58,2.49,1.16,1.73,2.11,2.47ZM19.22,320.61l-8.1-6.33c-2.17.91-3.26,2.53-3.26,4.87,0,.78.29,1.49.87,2.13s1.28,1.12,2.08,1.44,1.61.48,2.42.48c2.35,0,4.35-.86,5.99-2.59Z"/>
        <path class="cls-1" d="M44.7,320.17v-15.81c0-.51-.05-.92-.16-1.22s-.25-.51-.42-.61-.35-.2-.54-.29-.37-.18-.54-.26-.31-.26-.42-.52-.16-.61-.16-1.05c0-.29.11-.56.34-.82s.49-.38.79-.38h8.01c.3,0,.56.13.78.38s.33.53.33.82c0,.44-.05.79-.16,1.05s-.25.43-.41.52-.34.17-.54.26-.37.19-.54.29-.3.31-.41.61-.16.71-.16,1.22v15.81c0,.51.05.92.16,1.22s.25.51.41.61.34.2.54.29.37.18.54.26.3.26.41.52.16.61.16,1.05c0,.29-.11.56-.33.82s-.48.38-.78.38h-8.01c-.3,0-.57-.13-.79-.38s-.34-.53-.34-.82c0-.44.05-.79.16-1.05s.25-.43.42-.52.35-.17.54-.26.37-.19.54-.29.31-.31.42-.61.16-.71.16-1.22Z"/>
        <path class="cls-1" d="M79.73,325.33h-4.66c-.58,0-1-.08-1.27-.23s-.59-.48-.97-.97l-13.02-17.12v13.17c0,.51.05.92.16,1.22s.25.51.42.61.35.2.54.29.37.18.54.26.31.26.42.52.16.61.16,1.05c0,.29-.11.56-.33.82s-.48.38-.78.38h-5.79c-.3,0-.56-.13-.78-.38s-.33-.53-.33-.82c0-.44.05-.79.16-1.05s.25-.43.42-.52.35-.17.54-.26.37-.19.54-.29.31-.31.42-.61.16-.71.16-1.22v-15.81c0-.51-.05-.92-.16-1.22s-.25-.51-.42-.61-.35-.2-.54-.29-.37-.18-.54-.26-.31-.26-.42-.52-.16-.61-.16-1.05c0-.29.11-.56.33-.82s.48-.38.78-.38h4.66c.61,0,1.04.07,1.28.21s.57.47.96.99l13.02,17.12v-13.17c0-.51-.05-.92-.16-1.22s-.25-.51-.42-.61-.35-.2-.54-.29-.37-.18-.54-.26-.31-.26-.42-.52-.16-.61-.16-1.05c0-.29.11-.56.34-.82s.49-.38.79-.38h5.77c.3,0,.56.13.78.38s.33.53.33.82c0,.44-.05.79-.16,1.05s-.25.43-.41.52-.34.17-.54.26-.37.19-.54.29-.3.31-.41.61-.16.71-.16,1.22v15.81c0,.51.05.92.16,1.22s.25.51.41.61.34.2.54.29.37.18.54.26.3.26.41.52.16.61.16,1.05c0,.29-.11.56-.33.82s-.48.38-.78.38Z"/>
        <path class="cls-1" d="M90.76,304.36l6.5,15.81,5.88-15.81c.17-.49.26-.87.27-1.17s-.04-.49-.15-.59-.25-.2-.42-.3-.34-.19-.51-.28-.32-.27-.44-.55-.18-.63-.18-1.07c0-.29.11-.56.34-.82s.49-.38.79-.38h6.01c.3,0,.56.13.78.38s.33.53.33.82c0,.46-.07.81-.21,1.06s-.32.42-.56.53-.47.22-.73.35-.53.35-.82.68-.54.78-.75,1.34l-6.9,18.58c-.16.41-.3.74-.43.98s-.3.49-.53.73-.51.42-.86.52-.76.15-1.25.15h-2.08c-.21,0-.4,0-.57-.03s-.34-.06-.48-.13-.27-.12-.37-.15-.21-.12-.32-.25-.19-.22-.25-.27-.12-.17-.21-.35-.14-.29-.17-.36-.09-.2-.18-.43-.15-.37-.17-.43l-7.61-18.58c-.22-.55-.48-.97-.78-1.28s-.59-.51-.85-.61-.5-.2-.73-.3-.4-.29-.54-.56-.2-.67-.2-1.2c0-.29.11-.56.34-.82s.49-.38.79-.38h8.47c.3,0,.56.13.78.38s.33.53.33.82c0,.44-.06.79-.19,1.07s-.28.46-.45.55-.34.19-.52.29-.32.21-.43.31-.15.3-.13.59.13.67.33,1.15Z"/>
        <path class="cls-1" d="M131.53,325.33h-19.27c-.3,0-.57-.13-.79-.38s-.34-.53-.34-.82c0-.44.05-.79.16-1.05s.25-.43.42-.52.35-.17.54-.26.37-.19.54-.29.31-.31.42-.61.16-.71.16-1.22v-15.81c0-.51-.05-.92-.16-1.22s-.25-.51-.42-.61-.35-.2-.54-.29-.37-.18-.54-.26-.31-.26-.42-.52-.16-.61-.16-1.05c0-.29.11-.56.34-.82s.49-.38.79-.38h18.76c.35,0,.69.16,1.01.48s.48.66.48,1.01v3.17c0,.3-.13.57-.38.79s-.53.34-.82.34c-.39,0-.71-.04-.97-.13s-.46-.19-.6-.32-.26-.27-.36-.44-.22-.32-.34-.48-.26-.3-.42-.43-.39-.23-.7-.32-.68-.13-1.12-.13h-7.63v8.05h4.61c.51,0,.92-.05,1.23-.16s.51-.25.61-.42.19-.35.29-.54.19-.37.26-.54.25-.31.52-.42.62-.16,1.06-.16c.29,0,.56.11.81.34s.37.49.37.79v5.77c0,.3-.12.57-.37.79s-.52.34-.81.34c-.44,0-.79-.05-1.06-.16s-.44-.25-.52-.42-.17-.35-.26-.54-.19-.37-.29-.54-.3-.31-.61-.42-.72-.16-1.23-.16h-4.61v7.41h8.16c.51,0,.93-.05,1.27-.16s.57-.25.71-.41.28-.34.43-.54.28-.37.4-.54.33-.3.62-.41.66-.16,1.09-.16c.29,0,.56.11.81.33s.37.48.37.78v3.17c0,.35-.16.69-.48,1.01s-.66.48-1.01.48Z"/>
        <path class="cls-1" d="M155.88,317.53c0,1.09-.19,2.1-.56,3.03s-.94,1.77-1.71,2.52-1.83,1.34-3.19,1.78-2.94.65-4.76.65c-1.21,0-2.44-.15-3.67-.45s-2.38-.73-3.45-1.29-1.94-1.31-2.61-2.24-1.01-1.96-1.01-3.11c0-.83.32-1.47.96-1.92s1.39-.68,2.25-.68c.8,0,1.49.19,2.08.58s.87.93.87,1.62c-.29,1.11.1,2.1,1.17,2.99s2.38,1.33,3.91,1.33c.92,0,1.75-.33,2.48-.98s1.09-1.4,1.09-2.22c0-.52-.16-.98-.48-1.38s-.76-.73-1.3-1-1.17-.52-1.88-.76-1.45-.48-2.23-.72-1.57-.5-2.35-.77-1.53-.62-2.23-1.04-1.33-.89-1.88-1.42-.98-1.19-1.3-1.99-.48-1.7-.48-2.7c0-1.21.18-2.3.53-3.27s.92-1.84,1.69-2.61,1.85-1.38,3.21-1.8,3-.64,4.89-.64c3.17,0,5.52.5,7.06,1.51s2.3,2.39,2.3,4.15c0,.83-.32,1.46-.95,1.91s-1.37.67-2.22.67-1.51-.19-2.09-.57-.87-.91-.87-1.59c.16-.56.04-1.07-.36-1.53s-.9-.81-1.51-1.04-1.22-.35-1.83-.35c-1.23,0-2.21.36-2.95,1.07s-1.11,1.62-1.11,2.74c0,.69.27,1.29.81,1.8s1.24.93,2.09,1.26,1.79.64,2.82.95,2.06.65,3.09,1.05,1.96.85,2.81,1.37,1.54,1.21,2.08,2.08.8,1.88.8,3.03Z"/>
        <path class="cls-1" d="M167.03,320.17v-17.41h-4.13c-.44,0-.81.04-1.12.13s-.54.19-.7.32-.3.27-.42.43-.23.32-.34.48-.22.31-.36.44-.34.23-.6.32-.59.13-.97.13c-.29,0-.56-.11-.82-.34s-.38-.49-.38-.79v-3.17c0-.35.16-.69.48-1.01s.66-.48,1.01-.48h22.5c.35,0,.69.16,1.01.48s.48.66.48,1.01v3.17c0,.3-.12.57-.37.79s-.52.34-.81.34c-.39,0-.71-.04-.97-.13s-.46-.19-.6-.32-.26-.27-.36-.44-.22-.32-.34-.48-.26-.3-.42-.43-.39-.23-.7-.32-.68-.13-1.12-.13h-4.13v17.41c0,.51.05.92.16,1.22s.25.51.41.61.34.2.54.29.37.18.54.26.3.26.41.52.16.61.16,1.05c0,.29-.11.56-.33.82s-.48.38-.78.38h-8.01c-.3,0-.57-.13-.79-.38s-.34-.53-.34-.82c0-.44.05-.79.16-1.05s.25-.43.42-.52.35-.17.54-.26.37-.19.54-.29.31-.31.42-.61.16-.71.16-1.22Z"/>
        <path class="cls-1" d="M208.76,307.17l-6.19,15.77c-.21.5-.36.85-.46,1.07s-.23.44-.41.69-.37.42-.57.5-.46.13-.77.13-.53-.03-.72-.09-.38-.23-.56-.51-.31-.48-.36-.59-.19-.45-.41-.99c-.04-.09-.07-.15-.09-.2l-6.23-15.77v13.01c0,.51.05.92.16,1.22s.25.51.41.61.34.2.54.29.37.18.54.26.3.26.41.52.16.61.16,1.05c0,.29-.11.56-.33.82s-.48.38-.78.38h-8.01c-.3,0-.57-.13-.79-.38s-.34-.53-.34-.82c0-.44.05-.79.16-1.05s.25-.43.42-.52.35-.17.54-.26.37-.19.54-.29.31-.31.42-.61.16-.71.16-1.22v-15.81c0-.51-.05-.92-.16-1.22s-.25-.51-.42-.61-.35-.2-.54-.29-.37-.18-.54-.26-.31-.26-.42-.52-.16-.61-.16-1.05c0-.29.11-.56.34-.82s.49-.38.79-.38h6.56c.38,0,.69.12.95.36s.44.52.55.84l7.23,18.4,7.25-18.4c.11-.32.29-.6.55-.84s.57-.36.95-.36h6.56c.3,0,.56.13.78.38s.33.53.33.82c0,.44-.05.79-.16,1.05s-.25.43-.41.52-.34.17-.54.26-.37.19-.54.29-.3.31-.41.61-.16.71-.16,1.22v15.81c0,.51.05.92.16,1.22s.25.51.41.61.34.2.54.29.37.18.54.26.3.26.41.52.16.61.16,1.05c0,.29-.11.56-.33.82s-.48.38-.78.38h-8.01c-.3,0-.57-.13-.79-.38s-.34-.53-.34-.82c0-.44.05-.79.16-1.05s.25-.43.42-.52.35-.17.54-.26.37-.19.54-.29.31-.31.42-.61.16-.71.16-1.22v-13.01Z"/>
        <path class="cls-1" d="M238.71,325.33h-19.27c-.3,0-.57-.13-.79-.38s-.34-.53-.34-.82c0-.44.05-.79.16-1.05s.25-.43.42-.52.35-.17.54-.26.37-.19.54-.29.31-.31.42-.61.16-.71.16-1.22v-15.81c0-.51-.05-.92-.16-1.22s-.25-.51-.42-.61-.35-.2-.54-.29-.37-.18-.54-.26-.31-.26-.42-.52-.16-.61-.16-1.05c0-.29.11-.56.34-.82s.49-.38.79-.38h18.76c.35,0,.69.16,1.01.48s.48.66.48,1.01v3.17c0,.3-.13.57-.38.79s-.53.34-.82.34c-.39,0-.71-.04-.97-.13s-.46-.19-.6-.32-.26-.27-.36-.44-.22-.32-.34-.48-.26-.3-.42-.43-.39-.23-.7-.32-.68-.13-1.12-.13h-7.63v8.05h4.61c.51,0,.92-.05,1.23-.16s.51-.25.61-.42.19-.35.29-.54.19-.37.26-.54.25-.31.52-.42.62-.16,1.06-.16c.29,0,.56.11.81.34s.37.49.37.79v5.77c0,.3-.12.57-.37.79s-.52.34-.81.34c-.44,0-.79-.05-1.06-.16s-.44-.25-.52-.42-.17-.35-.26-.54-.19-.37-.29-.54-.3-.31-.61-.42-.72-.16-1.23-.16h-4.61v7.41h8.16c.51,0,.93-.05,1.27-.16s.57-.25.71-.41.28-.34.43-.54.28-.37.4-.54.33-.3.62-.41.66-.16,1.09-.16c.29,0,.56.11.81.33s.37.48.37.78v3.17c0,.35-.16.69-.48,1.01s-.66.48-1.01.48Z"/>
        <path class="cls-1" d="M267.58,325.33h-4.66c-.58,0-1-.08-1.27-.23s-.59-.48-.97-.97l-13.02-17.12v13.17c0,.51.05.92.16,1.22s.25.51.42.61.35.2.54.29.37.18.54.26.31.26.42.52.16.61.16,1.05c0,.29-.11.56-.33.82s-.48.38-.78.38h-5.79c-.3,0-.56-.13-.78-.38s-.33-.53-.33-.82c0-.44.05-.79.16-1.05s.25-.43.42-.52.35-.17.54-.26.37-.19.54-.29.31-.31.42-.61.16-.71.16-1.22v-15.81c0-.51-.05-.92-.16-1.22s-.25-.51-.42-.61-.35-.2-.54-.29-.37-.18-.54-.26-.31-.26-.42-.52-.16-.61-.16-1.05c0-.29.11-.56.33-.82s.48-.38.78-.38h4.66c.61,0,1.04.07,1.28.21s.57.47.96.99l13.02,17.12v-13.17c0-.51-.05-.92-.16-1.22s-.25-.51-.42-.61-.35-.2-.54-.29-.37-.18-.54-.26-.31-.26-.42-.52-.16-.61-.16-1.05c0-.29.11-.56.34-.82s.49-.38.79-.38h5.77c.3,0,.56.13.78.38s.33.53.33.82c0,.44-.05.79-.16,1.05s-.25.43-.41.52-.34.17-.54.26-.37.19-.54.29-.3.31-.41.61-.16.71-.16,1.22v15.81c0,.51.05.92.16,1.22s.25.51.41.61.34.2.54.29.37.18.54.26.3.26.41.52.16.61.16,1.05c0,.29-.11.56-.33.82s-.48.38-.78.38Z"/>
        <path class="cls-1" d="M279.33,320.17v-17.41h-4.13c-.44,0-.81.04-1.12.13s-.54.19-.7.32-.3.27-.42.43-.23.32-.34.48-.22.31-.36.44-.34.23-.6.32-.59.13-.97.13c-.29,0-.56-.11-.82-.34s-.38-.49-.38-.79v-3.17c0-.35.16-.69.48-1.01s.66-.48,1.01-.48h22.5c.35,0,.69.16,1.01.48s.48.66.48,1.01v3.17c0,.3-.12.57-.37.79s-.52.34-.81.34c-.39,0-.71-.04-.97-.13s-.46-.19-.6-.32-.26-.27-.36-.44-.22-.32-.34-.48-.26-.3-.42-.43-.39-.23-.7-.32-.68-.13-1.12-.13h-4.13v17.41c0,.51.05.92.16,1.22s.25.51.41.61.34.2.54.29.37.18.54.26.3.26.41.52.16.61.16,1.05c0,.29-.11.56-.33.82s-.48.38-.78.38h-8.01c-.3,0-.57-.13-.79-.38s-.34-.53-.34-.82c0-.44.05-.79.16-1.05s.25-.43.42-.52.35-.17.54-.26.37-.19.54-.29.31-.31.42-.61.16-.71.16-1.22Z"/>
        <path class="cls-1" d="M317.25,317.53c0,1.09-.19,2.1-.56,3.03s-.94,1.77-1.71,2.52-1.83,1.34-3.19,1.78-2.94.65-4.76.65c-1.21,0-2.44-.15-3.67-.45s-2.38-.73-3.45-1.29-1.94-1.31-2.61-2.24-1.01-1.96-1.01-3.11c0-.83.32-1.47.96-1.92s1.39-.68,2.25-.68c.8,0,1.49.19,2.08.58s.87.93.87,1.62c-.29,1.11.1,2.1,1.17,2.99s2.38,1.33,3.91,1.33c.92,0,1.75-.33,2.48-.98s1.09-1.4,1.09-2.22c0-.52-.16-.98-.48-1.38s-.76-.73-1.3-1-1.17-.52-1.88-.76-1.45-.48-2.23-.72-1.57-.5-2.35-.77-1.53-.62-2.23-1.04-1.33-.89-1.88-1.42-.98-1.19-1.3-1.99-.48-1.7-.48-2.7c0-1.21.18-2.3.53-3.27s.92-1.84,1.69-2.61,1.85-1.38,3.21-1.8,3-.64,4.89-.64c3.17,0,5.52.5,7.06,1.51s2.3,2.39,2.3,4.15c0,.83-.32,1.46-.95,1.91s-1.37.67-2.22.67-1.51-.19-2.09-.57-.87-.91-.87-1.59c.16-.56.04-1.07-.36-1.53s-.9-.81-1.51-1.04-1.22-.35-1.83-.35c-1.23,0-2.21.36-2.95,1.07s-1.11,1.62-1.11,2.74c0,.69.27,1.29.81,1.8s1.24.93,2.09,1.26,1.79.64,2.82.95,2.06.65,3.09,1.05,1.96.85,2.81,1.37,1.54,1.21,2.08,2.08.8,1.88.8,3.03Z"/>
      </g>
    </g>
  </g>
</svg>