<?xml version="1.0" encoding="UTF-8"?>
<svg id="Layer_2" data-name="Layer 2" xmlns="http://www.w3.org/2000/svg" viewBox="0 0 576.64 91.71">
  <defs>
    <style>
      .cls-1 {
        fill: #fff;
      }
    </style>
  </defs>
  <g id="Layer_1-2" data-name="Layer 1">
    <g>
      <g>
        <polygon class="cls-1" points="94.33 91.71 94.33 37.97 60.06 90.99 38.01 56.92 50.04 38.21 60.18 53.14 94.45 0 114.51 0 114.87 .36 114.87 91.35 114.51 91.71 94.33 91.71"/>
        <polygon class="cls-1" points="20.54 0 20.54 34.39 42.87 0 66.87 0 66.65 .85 20.54 72.24 20.54 91.71 .36 91.71 0 91.35 0 .36 .36 0 20.54 0"/>
      </g>
      <g>
        <path class="cls-1" d="M124.81,31.96V8.07c0-.77-.08-1.39-.25-1.84s-.38-.77-.63-.92-.53-.3-.81-.44-.56-.27-.81-.4-.47-.39-.63-.78-.25-.92-.25-1.58c0-.44.17-.85.51-1.24s.74-.58,1.2-.58h12.11c.46,0,.85.19,1.18.58s.5.8.5,1.24c0,.66-.08,1.19-.25,1.58s-.37.66-.62.78-.52.26-.81.4-.56.28-.81.44-.45.46-.62.92-.25,1.07-.25,1.84v10.93l5.78-3.99c1.05-.61,2.05-1.32,3-2.13s1.77-1.68,2.44-2.6,1.12-1.81,1.35-2.68.15-1.67-.23-2.38c-.18-1.21.4-2.34,1.76-3.37s2.78-1.56,4.27-1.56c1.3,0,2.23.48,2.78,1.43.5.84.76,1.74.8,2.68s-.13,1.88-.51,2.79-.87,1.83-1.49,2.73-1.35,1.78-2.22,2.64-1.73,1.66-2.62,2.39-1.81,1.43-2.78,2.09l-3.11,2.12,9.72,12.8c.72.95,1.48,1.72,2.28,2.3s1.44.95,1.9,1.13.84.46,1.16.85.47.96.47,1.69c0,.44-.19.85-.58,1.24s-.82.58-1.29.58h-6.83c-.99,0-1.76-.12-2.31-.37s-1.09-.73-1.62-1.45l-10.1-13.79-2.01,1.35v6.47c0,.77.08,1.39.25,1.84s.37.77.62.92.52.3.81.44.56.27.81.4.45.39.62.78.25.92.25,1.58c0,.44-.17.85-.5,1.24s-.72.58-1.18.58h-12.11c-.46,0-.86-.19-1.2-.58s-.51-.8-.51-1.24c0-.66.08-1.19.25-1.58s.38-.66.63-.78.53-.26.81-.4.56-.28.81-.44.47-.46.63-.92.25-1.07.25-1.84Z"/>
        <path class="cls-1" d="M163.13,31.96V8.07c0-.77-.08-1.39-.25-1.84s-.38-.77-.63-.92-.53-.3-.81-.44-.56-.27-.81-.4-.47-.39-.63-.78-.25-.92-.25-1.58c0-.44.17-.85.51-1.24s.74-.58,1.2-.58h12.11c.46,0,.85.19,1.18.58s.5.8.5,1.24c0,.66-.08,1.19-.25,1.58s-.37.66-.62.78-.52.26-.81.4-.56.28-.81.44-.45.46-.62.92-.25,1.07-.25,1.84v23.89c0,.77.08,1.39.25,1.84s.37.77.62.92.52.3.81.44.56.27.81.4.45.39.62.78.25.92.25,1.58c0,.44-.17.85-.5,1.24s-.72.58-1.18.58h-12.11c-.46,0-.86-.19-1.2-.58s-.51-.8-.51-1.24c0-.66.08-1.19.25-1.58s.38-.66.63-.78.53-.26.81-.4.56-.28.81-.44.47-.46.63-.92.25-1.07.25-1.84Z"/>
        <path class="cls-1" d="M179.21.28h15.83c2.88,0,5.34.21,7.36.62s3.8,1.11,5.33,2.08,2.66,2.32,3.4,4.03c.74,1.72,1.11,3.84,1.11,6.37,0,3.29-1,6-3,8.13s-4.82,3.57-8.45,4.31c1.06,1.3,2.21,2.36,3.44,3.18s2.38,1.23,3.44,1.23c.64,0,1.17-.13,1.57-.39.84-.13,1.67.17,2.49.88s1.44,1.57,1.86,2.57.58,2.02.48,3.07-.55,1.8-1.34,2.26c-1.27.75-2.79,1.13-4.57,1.13-2.29,0-4.62-.65-6.96-1.94s-4.23-2.96-5.64-5l-4.46-6.41h-1.46v5.62c0,.77.08,1.39.25,1.84s.37.76.62.91.52.29.81.43.56.27.81.39.45.38.62.77.25.92.25,1.58c0,.44-.17.85-.5,1.24s-.72.58-1.18.58h-12.11c-.46,0-.86-.19-1.2-.58s-.51-.8-.51-1.24c0-.66.08-1.19.25-1.58s.38-.65.63-.77.53-.25.81-.39.56-.28.81-.43.47-.45.63-.91.25-1.07.25-1.84V8.07c0-.77-.08-1.39-.25-1.84s-.38-.77-.63-.92-.53-.3-.81-.44-.56-.27-.81-.4-.47-.39-.63-.78-.25-.92-.25-1.58c0-.44.17-.85.51-1.24s.74-.58,1.2-.58ZM189.64,5.64v15.39h4.73c1.49,0,2.86-.27,4.12-.8s2.31-1.4,3.17-2.6,1.28-2.65,1.28-4.34c0-2.64-.71-4.58-2.12-5.81s-3.54-1.84-6.39-1.84h-4.79Z"/>
        <path class="cls-1" d="M218.99,31.96V8.07c0-.77-.08-1.39-.25-1.84s-.38-.77-.63-.92-.53-.3-.81-.44-.56-.27-.81-.4-.47-.39-.63-.78-.25-.92-.25-1.58c0-.44.17-.85.51-1.24s.74-.58,1.2-.58h12.11c.46,0,.85.19,1.18.58s.5.8.5,1.24c0,.66-.08,1.19-.25,1.58s-.37.66-.62.78-.52.26-.81.4-.56.28-.81.44-.45.46-.62.92-.25,1.07-.25,1.84v23.89c0,.77.08,1.39.25,1.84s.37.77.62.92.52.3.81.44.56.27.81.4.45.39.62.78.25.92.25,1.58c0,.44-.17.85-.5,1.24s-.72.58-1.18.58h-12.11c-.46,0-.86-.19-1.2-.58s-.51-.8-.51-1.24c0-.66.08-1.19.25-1.58s.38-.66.63-.78.53-.26.81-.4.56-.28.81-.44.47-.46.63-.92.25-1.07.25-1.84Z"/>
        <path class="cls-1" d="M236.74,31.96V8.07c0-.77-.08-1.39-.25-1.84s-.38-.77-.63-.92-.53-.3-.81-.44-.56-.27-.81-.4-.47-.39-.63-.78-.25-.92-.25-1.58c0-.44.17-.85.51-1.24s.74-.58,1.2-.58h12.11c.46,0,.85.19,1.18.58s.5.8.5,1.24c0,.66-.08,1.19-.25,1.58s-.37.66-.62.78-.52.26-.81.4-.56.28-.81.44-.45.46-.62.92-.25,1.07-.25,1.84v10.93l5.78-3.99c1.05-.61,2.05-1.32,3-2.13s1.77-1.68,2.44-2.6,1.12-1.81,1.35-2.68.15-1.67-.23-2.38c-.18-1.21.4-2.34,1.76-3.37s2.78-1.56,4.27-1.56c1.3,0,2.23.48,2.78,1.43.5.84.76,1.74.8,2.68s-.13,1.88-.51,2.79-.87,1.83-1.49,2.73-1.35,1.78-2.22,2.64-1.73,1.66-2.62,2.39-1.81,1.43-2.78,2.09l-3.11,2.12,9.72,12.8c.72.95,1.48,1.72,2.28,2.3s1.44.95,1.9,1.13.84.46,1.16.85.47.96.47,1.69c0,.44-.19.85-.58,1.24s-.82.58-1.29.58h-6.83c-.99,0-1.76-.12-2.31-.37s-1.09-.73-1.62-1.45l-10.1-13.79-2.01,1.35v6.47c0,.77.08,1.39.25,1.84s.37.77.62.92.52.3.81.44.56.27.81.4.45.39.62.78.25.92.25,1.58c0,.44-.17.85-.5,1.24s-.72.58-1.18.58h-12.11c-.46,0-.86-.19-1.2-.58s-.51-.8-.51-1.24c0-.66.08-1.19.25-1.58s.38-.66.63-.78.53-.26.81-.4.56-.28.81-.44.47-.46.63-.92.25-1.07.25-1.84Z"/>
        <path class="cls-1" d="M290.23,0c6.18,0,11.09,1.85,14.73,5.55,3.63,3.7,5.45,8.68,5.45,14.93,0,2.88-.54,5.55-1.62,8.01s-2.56,4.52-4.43,6.19-4.09,2.98-6.65,3.92-5.3,1.42-8.22,1.42-5.49-.48-8-1.45-4.67-2.29-6.48-3.99-3.26-3.77-4.32-6.21-1.6-5.07-1.6-7.9c0-3.98.92-7.53,2.75-10.65,1.84-3.12,4.35-5.53,7.56-7.24,3.2-1.71,6.81-2.57,10.83-2.59ZM290.07,4.79c-7.78,0-11.67,5.21-11.67,15.64,0,1.58.1,3.04.29,4.39s.55,2.68,1.06,3.99,1.18,2.43,2,3.34,1.89,1.66,3.21,2.23,2.85.85,4.6.85c7.71,0,11.56-4.9,11.56-14.7,0-1.27-.03-2.4-.1-3.41s-.19-2.07-.39-3.19-.45-2.11-.77-2.96-.76-1.68-1.32-2.49-1.22-1.47-1.98-1.98-1.69-.93-2.79-1.24-2.33-.47-3.69-.47Z"/>
        <path class="cls-1" d="M366.21,12.31l-9.36,23.84c-.31.75-.54,1.29-.69,1.61s-.35.67-.62,1.05-.56.63-.87.76-.7.19-1.16.19-.8-.05-1.09-.14-.57-.35-.85-.77-.47-.72-.55-.89-.29-.67-.62-1.5c-.06-.13-.1-.23-.14-.3l-9.41-23.84v19.66c0,.77.08,1.39.25,1.84s.37.77.62.92.52.3.81.44.56.27.81.4.45.39.62.78.25.92.25,1.58c0,.44-.17.85-.5,1.24s-.72.58-1.18.58h-12.11c-.46,0-.86-.19-1.2-.58s-.51-.8-.51-1.24c0-.66.08-1.19.25-1.58s.38-.66.63-.78.53-.26.81-.4.56-.28.81-.44.47-.46.63-.92.25-1.07.25-1.84V8.07c0-.77-.08-1.39-.25-1.84s-.38-.77-.63-.92-.53-.3-.81-.44-.56-.27-.81-.4-.47-.39-.63-.78-.25-.92-.25-1.58c0-.44.17-.85.51-1.24s.74-.58,1.2-.58h9.91c.57,0,1.05.18,1.43.55s.66.79.83,1.27l10.93,27.8,10.96-27.8c.17-.48.44-.9.83-1.27s.86-.55,1.43-.55h9.91c.46,0,.85.19,1.18.58s.5.8.5,1.24c0,.66-.08,1.19-.25,1.58s-.37.66-.62.78-.52.26-.81.4-.56.28-.81.44-.45.46-.62.92-.25,1.07-.25,1.84v23.89c0,.77.08,1.39.25,1.84s.37.77.62.92.52.3.81.44.56.27.81.4.45.39.62.78.25.92.25,1.58c0,.44-.17.85-.5,1.24s-.72.58-1.18.58h-12.11c-.46,0-.86-.19-1.2-.58s-.51-.8-.51-1.24c0-.66.08-1.19.25-1.58s.38-.66.63-.78.53-.26.81-.4.56-.28.81-.44.47-.46.63-.92.25-1.07.25-1.84V12.31Z"/>
        <path class="cls-1" d="M401.5,0c6.18,0,11.09,1.85,14.73,5.55s5.45,8.68,5.45,14.93c0,2.88-.54,5.55-1.62,8.01-1.08,2.46-2.56,4.52-4.43,6.19s-4.09,2.98-6.65,3.92-5.3,1.42-8.22,1.42-5.49-.48-8-1.45-4.67-2.29-6.48-3.99-3.26-3.77-4.32-6.21-1.6-5.07-1.6-7.9c0-3.98.92-7.53,2.75-10.65s4.35-5.53,7.56-7.24,6.81-2.57,10.83-2.59ZM401.34,4.79c-7.78,0-11.67,5.21-11.67,15.64,0,1.58.1,3.04.29,4.39s.55,2.68,1.06,3.99,1.18,2.43,2,3.34,1.89,1.66,3.21,2.23,2.85.85,4.6.85c7.71,0,11.56-4.9,11.56-14.7,0-1.27-.03-2.4-.1-3.41s-.19-2.07-.39-3.19-.45-2.11-.77-2.96-.76-1.68-1.32-2.49-1.22-1.47-1.98-1.98-1.69-.93-2.79-1.24-2.33-.47-3.69-.47Z"/>
        <path class="cls-1" d="M438.25,31.96V5.64h-6.25c-.66,0-1.23.06-1.69.19s-.82.29-1.06.48-.45.41-.63.65-.35.48-.51.73-.34.47-.55.66-.51.35-.91.48-.89.19-1.47.19c-.44,0-.85-.17-1.24-.51s-.58-.74-.58-1.2V2.53c0-.53.24-1.04.73-1.53s1-.73,1.53-.73h34c.53,0,1.04.24,1.53.73s.73,1,.73,1.53v4.79c0,.46-.19.86-.56,1.2s-.78.51-1.23.51c-.59,0-1.08-.06-1.47-.19s-.7-.29-.91-.48-.39-.41-.55-.66-.33-.49-.51-.73-.39-.45-.63-.65-.59-.35-1.06-.48-1.03-.19-1.69-.19h-6.25v26.32c0,.77.08,1.39.25,1.84s.37.77.62.92.52.3.81.44.56.27.81.4.45.39.62.78.25.92.25,1.58c0,.44-.17.85-.5,1.24s-.72.58-1.18.58h-12.11c-.46,0-.86-.19-1.2-.58s-.51-.8-.51-1.24c0-.66.08-1.19.25-1.58s.38-.66.63-.78.53-.26.81-.4.56-.28.81-.44.47-.46.63-.92.25-1.07.25-1.84Z"/>
        <path class="cls-1" d="M484.69,0c6.18,0,11.09,1.85,14.73,5.55,3.63,3.7,5.45,8.68,5.45,14.93,0,2.88-.54,5.55-1.62,8.01s-2.56,4.52-4.43,6.19c-1.87,1.67-4.09,2.98-6.65,3.92s-5.3,1.42-8.22,1.42-5.49-.48-8-1.45-4.67-2.29-6.48-3.99-3.26-3.77-4.32-6.21-1.6-5.07-1.6-7.9c0-3.98.92-7.53,2.75-10.65,1.84-3.12,4.35-5.53,7.56-7.24s6.81-2.57,10.83-2.59ZM484.53,4.79c-7.78,0-11.67,5.21-11.67,15.64,0,1.58.1,3.04.29,4.39s.55,2.68,1.06,3.99,1.18,2.43,2,3.34,1.89,1.66,3.21,2.23,2.85.85,4.6.85c7.71,0,11.56-4.9,11.56-14.7,0-1.27-.03-2.4-.1-3.41s-.19-2.07-.39-3.19-.45-2.11-.77-2.96-.76-1.68-1.32-2.49-1.22-1.47-1.98-1.98-1.69-.93-2.79-1.24-2.33-.47-3.69-.47Z"/>
        <path class="cls-1" d="M508.56.28h15.83c2.88,0,5.34.21,7.36.62s3.8,1.11,5.33,2.08,2.66,2.32,3.4,4.03,1.11,3.84,1.11,6.37c0,3.29-1,6-3,8.13-2,2.14-4.82,3.57-8.45,4.31,1.06,1.3,2.21,2.36,3.44,3.18s2.38,1.23,3.44,1.23c.64,0,1.17-.13,1.57-.39.84-.13,1.67.17,2.49.88s1.44,1.57,1.86,2.57.58,2.02.48,3.07-.55,1.8-1.34,2.26c-1.27.75-2.79,1.13-4.57,1.13-2.29,0-4.62-.65-6.96-1.94s-4.23-2.96-5.64-5l-4.46-6.41h-1.46v5.62c0,.77.08,1.39.25,1.84s.37.76.62.91.52.29.81.43.56.27.81.39.45.38.62.77.25.92.25,1.58c0,.44-.17.85-.5,1.24s-.72.58-1.18.58h-12.11c-.46,0-.86-.19-1.2-.58s-.51-.8-.51-1.24c0-.66.08-1.19.25-1.58s.38-.65.63-.77.53-.25.81-.39.56-.28.81-.43.47-.45.63-.91.25-1.07.25-1.84V8.07c0-.77-.08-1.39-.25-1.84s-.38-.77-.63-.92-.53-.3-.81-.44-.56-.27-.81-.4-.47-.39-.63-.78-.25-.92-.25-1.58c0-.44.17-.85.51-1.24s.74-.58,1.2-.58ZM519,5.64v15.39h4.73c1.49,0,2.86-.27,4.12-.8s2.31-1.4,3.17-2.6c.85-1.2,1.28-2.65,1.28-4.34,0-2.64-.71-4.58-2.12-5.81s-3.54-1.84-6.39-1.84h-4.79Z"/>
        <path class="cls-1" d="M576.64,27.97c0,1.65-.28,3.18-.84,4.58s-1.42,2.67-2.59,3.81-2.77,2.03-4.82,2.68-4.45.98-7.2.98c-1.84,0-3.68-.22-5.55-.67s-3.6-1.1-5.22-1.95-2.93-1.98-3.95-3.39c-1.02-1.4-1.53-2.97-1.53-4.69,0-1.25.48-2.22,1.45-2.9s2.1-1.03,3.4-1.03c1.21,0,2.26.29,3.14.88s1.32,1.4,1.32,2.45c-.44,1.67.15,3.17,1.78,4.51s3.59,2.01,5.9,2.01c1.39,0,2.64-.5,3.74-1.49s1.65-2.11,1.65-3.36c0-.79-.24-1.49-.73-2.09s-1.14-1.11-1.97-1.51-1.77-.78-2.84-1.14-2.19-.72-3.37-1.09-2.37-.76-3.55-1.17-2.31-.94-3.37-1.57-2.01-1.35-2.84-2.15-1.48-1.8-1.97-3.01-.73-2.57-.73-4.07c0-1.84.27-3.48.8-4.94s1.39-2.78,2.56-3.95,2.79-2.08,4.86-2.73,4.53-.96,7.39-.96c4.79,0,8.35.76,10.67,2.28s3.48,3.62,3.48,6.28c0,1.25-.48,2.21-1.43,2.89s-2.07,1.02-3.36,1.02-2.28-.29-3.17-.87-1.32-1.38-1.32-2.41c.24-.84.06-1.62-.54-2.31s-1.36-1.22-2.28-1.57-1.85-.52-2.77-.52c-1.85,0-3.34.54-4.46,1.61s-1.68,2.45-1.68,4.14c0,1.05.41,1.95,1.23,2.73s1.87,1.4,3.15,1.9,2.71.97,4.27,1.43,3.12.99,4.67,1.58,2.97,1.28,4.25,2.06,2.33,1.83,3.14,3.14,1.21,2.84,1.21,4.58Z"/>
        <path class="cls-1" d="M138.16,67.43l13.76,10.65c.97-2.28,1.56-4.51,1.76-6.72.2-1.96,1.03-2.95,2.48-2.95.02,0,.26.05.72.14.72.17,1.26.54,1.62,1.13s.52,1.26.47,2.01c-.22,3.76-1.01,7.11-2.37,10.05.7.55,1.75,1.37,3.17,2.45s2.47,1.9,3.17,2.45c.59.46.92,1.06,1,1.79s-.11,1.39-.56,1.98c-.5.68-1.17,1.02-2.04,1.02-.64,0-1.2-.18-1.68-.55l-5.97-4.62c-3.29,3.63-7.84,5.45-13.65,5.45-3.05,0-5.81-.39-8.29-1.17s-4.49-1.98-6.03-3.61-2.31-3.55-2.31-5.77c0-1.34.11-2.49.34-3.44s.66-1.91,1.29-2.86,1.56-1.84,2.79-2.66c1.23-.82,2.8-1.62,4.71-2.41-.95-.83-1.71-1.52-2.26-2.09s-1.1-1.22-1.64-1.95-.93-1.5-1.17-2.3-.36-1.67-.36-2.63c0-2.4,1.24-4.53,3.72-6.37s5.52-2.77,9.14-2.77c4.77,0,8.25.76,10.43,2.27s3.28,3.61,3.28,6.29c0,1.25-.48,2.21-1.43,2.89s-2.07,1.02-3.36,1.02c-1.21,0-2.27-.29-3.17-.88s-1.35-1.39-1.35-2.39c.39-1.49.1-2.59-.87-3.32s-2.23-1.09-3.81-1.09-2.87.37-3.81,1.1-1.47,1.64-1.58,2.73.17,2.28.83,3.58,1.67,2.49,3.03,3.55ZM149.01,82.65l-11.62-9.08c-3.12,1.3-4.68,3.63-4.68,6.99,0,1.12.42,2.14,1.25,3.06s1.83,1.61,2.99,2.06,2.31.69,3.47.69c3.38,0,6.24-1.24,8.59-3.72Z"/>
        <path class="cls-1" d="M185.56,82.02v-22.69c0-.73-.08-1.32-.24-1.75s-.36-.73-.6-.88-.5-.29-.77-.42-.53-.26-.77-.38-.44-.37-.6-.74-.24-.88-.24-1.5c0-.42.16-.81.48-1.18s.7-.55,1.14-.55h11.5c.44,0,.81.18,1.12.55s.47.76.47,1.18c0,.63-.08,1.13-.24,1.5s-.35.62-.59.74-.49.25-.77.38-.54.27-.77.42-.43.44-.59.88-.24,1.02-.24,1.75v22.69c0,.73.08,1.32.24,1.75s.35.73.59.88.49.29.77.42.54.26.77.38.43.37.59.74.24.88.24,1.5c0,.42-.16.81-.47,1.18s-.69.55-1.12.55h-11.5c-.44,0-.81-.18-1.14-.55s-.48-.76-.48-1.18c0-.63.08-1.13.24-1.5s.36-.62.6-.74.5-.25.77-.38.53-.27.77-.42.44-.44.6-.88.24-1.02.24-1.75Z"/>
        <path class="cls-1" d="M235.82,89.42h-6.69c-.84,0-1.44-.11-1.82-.33s-.84-.68-1.4-1.4l-18.69-24.57v18.9c0,.73.08,1.32.24,1.75s.36.73.6.88.5.29.77.42.53.26.77.38.44.37.6.74.24.88.24,1.5c0,.42-.16.81-.47,1.18s-.69.55-1.12.55h-8.31c-.44,0-.81-.18-1.12-.55s-.47-.76-.47-1.18c0-.63.08-1.13.24-1.5s.36-.62.6-.74.5-.25.77-.38.53-.27.77-.42.44-.44.6-.88.24-1.02.24-1.75v-22.69c0-.73-.08-1.32-.24-1.75s-.36-.73-.6-.88-.5-.29-.77-.42-.53-.26-.77-.38-.44-.37-.6-.74-.24-.88-.24-1.5c0-.42.16-.81.47-1.18s.69-.55,1.12-.55h6.69c.87,0,1.49.1,1.84.3s.81.68,1.37,1.42l18.69,24.57v-18.9c0-.73-.08-1.32-.24-1.75s-.36-.73-.6-.88-.5-.29-.77-.42-.53-.26-.77-.38-.44-.37-.6-.74-.24-.88-.24-1.5c0-.42.16-.81.48-1.18s.7-.55,1.14-.55h8.29c.44,0,.81.18,1.12.55s.47.76.47,1.18c0,.63-.08,1.13-.24,1.5s-.35.62-.59.74-.49.25-.77.38-.54.27-.77.42-.43.44-.59.88-.24,1.02-.24,1.75v22.69c0,.73.08,1.32.24,1.75s.35.73.59.88.49.29.77.42.54.26.77.38.43.37.59.74.24.88.24,1.5c0,.42-.16.81-.47,1.18s-.69.55-1.12.55Z"/>
        <path class="cls-1" d="M251.66,59.34l9.33,22.69,8.44-22.69c.24-.7.37-1.25.39-1.67s-.05-.7-.21-.85-.36-.29-.6-.43-.49-.27-.73-.41-.45-.39-.63-.78-.26-.9-.26-1.53c0-.42.16-.81.48-1.18s.7-.55,1.14-.55h8.63c.44,0,.81.18,1.12.55s.47.76.47,1.18c0,.66-.1,1.17-.3,1.52s-.47.6-.8.76-.68.32-1.05.5-.76.5-1.18.98-.78,1.12-1.07,1.92l-9.91,26.66c-.23.59-.43,1.06-.61,1.41s-.44.7-.76,1.05-.73.6-1.23.74-1.09.22-1.79.22h-2.98c-.3,0-.57-.01-.82-.04s-.48-.09-.69-.18-.39-.17-.54-.22-.3-.17-.46-.35-.27-.31-.35-.39-.18-.24-.3-.5-.2-.42-.25-.51-.13-.29-.26-.61-.21-.53-.25-.61l-10.93-26.66c-.31-.78-.69-1.4-1.12-1.84s-.84-.74-1.22-.88-.72-.28-1.05-.43-.58-.41-.77-.8-.29-.96-.29-1.73c0-.42.16-.81.48-1.18s.7-.55,1.14-.55h12.15c.44,0,.81.18,1.12.55s.47.76.47,1.18c0,.63-.09,1.14-.27,1.53s-.4.65-.64.78-.49.27-.74.42-.46.3-.61.44-.22.43-.18.85.19.97.47,1.65Z"/>
        <path class="cls-1" d="M310.15,89.42h-27.65c-.44,0-.81-.18-1.14-.55s-.48-.76-.48-1.18c0-.63.08-1.13.24-1.5s.36-.62.6-.74.5-.25.77-.38.53-.27.77-.42.44-.44.6-.88.24-1.02.24-1.75v-22.69c0-.73-.08-1.32-.24-1.75s-.36-.73-.6-.88-.5-.29-.77-.42-.53-.26-.77-.38-.44-.37-.6-.74-.24-.88-.24-1.5c0-.42.16-.81.48-1.18s.7-.55,1.14-.55h26.92c.51,0,.99.23,1.45.69s.69.95.69,1.45v4.55c0,.44-.18.81-.55,1.14s-.76.48-1.18.48c-.56,0-1.02-.06-1.4-.18s-.66-.27-.86-.46-.37-.39-.52-.63-.31-.47-.48-.69-.37-.43-.6-.61-.56-.34-1.01-.46-.98-.18-1.61-.18h-10.95v11.55h6.61c.73,0,1.32-.08,1.76-.24s.74-.36.88-.6.28-.5.42-.77.27-.53.38-.77.36-.44.74-.6.89-.24,1.52-.24c.42,0,.81.16,1.16.48s.54.7.54,1.14v8.29c0,.44-.18.81-.54,1.14s-.74.48-1.16.48c-.63,0-1.13-.08-1.52-.24s-.63-.36-.74-.6-.24-.5-.38-.77-.28-.53-.42-.77-.43-.44-.88-.6-1.03-.24-1.76-.24h-6.61v10.64h11.71c.73,0,1.34-.08,1.82-.24s.82-.35,1.02-.59.41-.49.61-.77.4-.54.58-.77.47-.43.89-.59.94-.24,1.57-.24c.42,0,.81.16,1.16.47s.54.69.54,1.12v4.55c0,.51-.23.99-.69,1.45s-.95.69-1.45.69Z"/>
        <path class="cls-1" d="M345.1,78.24c0,1.57-.27,3.02-.8,4.35s-1.35,2.54-2.46,3.62-2.63,1.93-4.57,2.55-4.22.93-6.83.93c-1.74,0-3.5-.21-5.27-.64s-3.42-1.05-4.95-1.86-2.78-1.88-3.75-3.21-1.45-2.82-1.45-4.46c0-1.18.46-2.1,1.37-2.76s1.99-.98,3.23-.98c1.15,0,2.14.28,2.98.84s1.25,1.33,1.25,2.33c-.42,1.59.14,3.01,1.69,4.29s3.41,1.91,5.61,1.91c1.32,0,2.51-.47,3.55-1.41s1.57-2,1.57-3.19c0-.75-.23-1.41-.69-1.99s-1.08-1.05-1.87-1.44-1.68-.74-2.69-1.08-2.08-.68-3.2-1.03-2.25-.72-3.37-1.11-2.19-.89-3.2-1.49-1.91-1.28-2.69-2.04-1.41-1.71-1.87-2.86-.69-2.44-.69-3.87c0-1.74.25-3.31.76-4.69s1.32-2.64,2.43-3.75,2.65-1.98,4.61-2.59,4.3-.91,7.02-.91c4.55,0,7.92.72,10.13,2.17s3.31,3.43,3.31,5.96c0,1.18-.45,2.1-1.36,2.74s-1.97.97-3.19.97-2.17-.27-3.01-.82-1.25-1.31-1.25-2.29c.23-.8.06-1.53-.51-2.2s-1.29-1.16-2.17-1.49-1.76-.5-2.63-.5c-1.76,0-3.17.51-4.23,1.53s-1.59,2.33-1.59,3.93c0,.99.39,1.86,1.16,2.59s1.77,1.33,2.99,1.8,2.57.92,4.05,1.36,2.96.94,4.43,1.5,2.82,1.22,4.04,1.96,2.21,1.73,2.98,2.98,1.15,2.7,1.15,4.35Z"/>
        <path class="cls-1" d="M361.09,82.02v-24.99h-5.93c-.63,0-1.16.06-1.61.18s-.78.27-1.01.46-.43.39-.6.61-.34.46-.48.69-.32.44-.52.63-.49.34-.86.46-.84.18-1.4.18c-.42,0-.81-.16-1.18-.48s-.55-.7-.55-1.14v-4.55c0-.51.23-.99.69-1.45s.95-.69,1.45-.69h32.28c.51,0,.99.23,1.45.69s.69.95.69,1.45v4.55c0,.44-.18.81-.54,1.14s-.74.48-1.16.48c-.56,0-1.02-.06-1.4-.18s-.66-.27-.86-.46-.37-.39-.52-.63-.31-.47-.48-.69-.37-.43-.6-.61-.56-.34-1.01-.46-.98-.18-1.61-.18h-5.93v24.99c0,.73.08,1.32.24,1.75s.35.73.59.88.49.29.77.42.54.26.77.38.43.37.59.74.24.88.24,1.5c0,.42-.16.81-.47,1.18s-.69.55-1.12.55h-11.5c-.44,0-.81-.18-1.14-.55s-.48-.76-.48-1.18c0-.63.08-1.13.24-1.5s.36-.62.6-.74.5-.25.77-.38.53-.27.77-.42.44-.44.6-.88.24-1.02.24-1.75Z"/>
        <path class="cls-1" d="M420.97,63.36l-8.89,22.63c-.3.71-.51,1.22-.65,1.53s-.34.64-.59.99-.53.6-.82.72-.66.18-1.1.18-.76-.04-1.03-.13-.54-.33-.81-.73-.44-.68-.52-.85-.27-.64-.59-1.42c-.05-.12-.1-.22-.13-.29l-8.94-22.63v18.66c0,.73.08,1.32.24,1.75s.35.73.59.88.49.29.77.42.54.26.77.38.43.37.59.74.24.88.24,1.5c0,.42-.16.81-.47,1.18s-.69.55-1.12.55h-11.5c-.44,0-.81-.18-1.14-.55s-.48-.76-.48-1.18c0-.63.08-1.13.24-1.5s.36-.62.6-.74.5-.25.77-.38.53-.27.77-.42.44-.44.6-.88.24-1.02.24-1.75v-22.69c0-.73-.08-1.32-.24-1.75s-.36-.73-.6-.88-.5-.29-.77-.42-.53-.26-.77-.38-.44-.37-.6-.74-.24-.88-.24-1.5c0-.42.16-.81.48-1.18s.7-.55,1.14-.55h9.41c.54,0,.99.17,1.36.52s.63.75.78,1.2l10.38,26.4,10.4-26.4c.16-.45.42-.85.78-1.2s.82-.52,1.36-.52h9.41c.44,0,.81.18,1.12.55s.47.76.47,1.18c0,.63-.08,1.13-.24,1.5s-.35.62-.59.74-.49.25-.77.38-.54.27-.77.42-.43.44-.59.88-.24,1.02-.24,1.75v22.69c0,.73.08,1.32.24,1.75s.35.73.59.88.49.29.77.42.54.26.77.38.43.37.59.74.24.88.24,1.5c0,.42-.16.81-.47,1.18s-.69.55-1.12.55h-11.5c-.44,0-.81-.18-1.14-.55s-.48-.76-.48-1.18c0-.63.08-1.13.24-1.5s.36-.62.6-.74.5-.25.77-.38.53-.27.77-.42.44-.44.6-.88.24-1.02.24-1.75v-18.66Z"/>
        <path class="cls-1" d="M463.94,89.42h-27.65c-.44,0-.81-.18-1.14-.55s-.48-.76-.48-1.18c0-.63.08-1.13.24-1.5s.36-.62.6-.74.5-.25.77-.38.53-.27.77-.42.44-.44.6-.88.24-1.02.24-1.75v-22.69c0-.73-.08-1.32-.24-1.75s-.36-.73-.6-.88-.5-.29-.77-.42-.53-.26-.77-.38-.44-.37-.6-.74-.24-.88-.24-1.5c0-.42.16-.81.48-1.18s.7-.55,1.14-.55h26.92c.51,0,.99.23,1.45.69s.69.95.69,1.45v4.55c0,.44-.18.81-.55,1.14s-.76.48-1.18.48c-.56,0-1.02-.06-1.4-.18s-.66-.27-.86-.46-.37-.39-.52-.63-.31-.47-.48-.69-.37-.43-.6-.61-.56-.34-1.01-.46-.98-.18-1.61-.18h-10.95v11.55h6.61c.73,0,1.32-.08,1.76-.24s.74-.36.88-.6.28-.5.42-.77.27-.53.38-.77.36-.44.74-.6.89-.24,1.52-.24c.42,0,.81.16,1.16.48s.54.7.54,1.14v8.29c0,.44-.18.81-.54,1.14s-.74.48-1.16.48c-.63,0-1.13-.08-1.52-.24s-.63-.36-.74-.6-.24-.5-.38-.77-.28-.53-.42-.77-.43-.44-.88-.6-1.03-.24-1.76-.24h-6.61v10.64h11.71c.73,0,1.34-.08,1.82-.24s.82-.35,1.02-.59.41-.49.61-.77.4-.54.58-.77.47-.43.89-.59.94-.24,1.57-.24c.42,0,.81.16,1.16.47s.54.69.54,1.12v4.55c0,.51-.23.99-.69,1.45s-.95.69-1.45.69Z"/>
        <path class="cls-1" d="M505.37,89.42h-6.69c-.84,0-1.44-.11-1.82-.33s-.84-.68-1.4-1.4l-18.69-24.57v18.9c0,.73.08,1.32.24,1.75s.36.73.6.88.5.29.77.42.53.26.77.38.44.37.6.74.24.88.24,1.5c0,.42-.16.81-.47,1.18s-.69.55-1.12.55h-8.31c-.44,0-.81-.18-1.12-.55s-.47-.76-.47-1.18c0-.63.08-1.13.24-1.5s.36-.62.6-.74.5-.25.77-.38.53-.27.77-.42.44-.44.6-.88.24-1.02.24-1.75v-22.69c0-.73-.08-1.32-.24-1.75s-.36-.73-.6-.88-.5-.29-.77-.42-.53-.26-.77-.38-.44-.37-.6-.74-.24-.88-.24-1.5c0-.42.16-.81.47-1.18s.69-.55,1.12-.55h6.69c.87,0,1.49.1,1.84.3s.81.68,1.37,1.42l18.69,24.57v-18.9c0-.73-.08-1.32-.24-1.75s-.36-.73-.6-.88-.5-.29-.77-.42-.53-.26-.77-.38-.44-.37-.6-.74-.24-.88-.24-1.5c0-.42.16-.81.48-1.18s.7-.55,1.14-.55h8.29c.44,0,.81.18,1.12.55s.47.76.47,1.18c0,.63-.08,1.13-.24,1.5s-.35.62-.59.74-.49.25-.77.38-.54.27-.77.42-.43.44-.59.88-.24,1.02-.24,1.75v22.69c0,.73.08,1.32.24,1.75s.35.73.59.88.49.29.77.42.54.26.77.38.43.37.59.74.24.88.24,1.5c0,.42-.16.81-.47,1.18s-.69.55-1.12.55Z"/>
        <path class="cls-1" d="M522.22,82.02v-24.99h-5.93c-.63,0-1.16.06-1.61.18s-.78.27-1.01.46-.43.39-.6.61-.34.46-.48.69-.32.44-.52.63-.49.34-.86.46-.84.18-1.4.18c-.42,0-.81-.16-1.18-.48s-.55-.7-.55-1.14v-4.55c0-.51.23-.99.69-1.45s.95-.69,1.45-.69h32.28c.51,0,.99.23,1.45.69s.69.95.69,1.45v4.55c0,.44-.18.81-.54,1.14s-.74.48-1.16.48c-.56,0-1.02-.06-1.4-.18s-.66-.27-.86-.46-.37-.39-.52-.63-.31-.47-.48-.69-.37-.43-.6-.61-.56-.34-1.01-.46-.98-.18-1.61-.18h-5.93v24.99c0,.73.08,1.32.24,1.75s.35.73.59.88.49.29.77.42.54.26.77.38.43.37.59.74.24.88.24,1.5c0,.42-.16.81-.47,1.18s-.69.55-1.12.55h-11.5c-.44,0-.81-.18-1.14-.55s-.48-.76-.48-1.18c0-.63.08-1.13.24-1.5s.36-.62.6-.74.5-.25.77-.38.53-.27.77-.42.44-.44.6-.88.24-1.02.24-1.75Z"/>
        <path class="cls-1" d="M576.64,78.24c0,1.57-.27,3.02-.8,4.35s-1.35,2.54-2.46,3.62-2.63,1.93-4.57,2.55-4.22.93-6.83.93c-1.74,0-3.5-.21-5.27-.64s-3.42-1.05-4.95-1.86-2.78-1.88-3.75-3.21c-.97-1.33-1.45-2.82-1.45-4.46,0-1.18.46-2.1,1.37-2.76s1.99-.98,3.23-.98c1.15,0,2.14.28,2.98.84s1.25,1.33,1.25,2.33c-.42,1.59.14,3.01,1.69,4.29s3.41,1.91,5.61,1.91c1.32,0,2.51-.47,3.55-1.41s1.57-2,1.57-3.19c0-.75-.23-1.41-.69-1.99s-1.08-1.05-1.87-1.44-1.68-.74-2.69-1.08-2.08-.68-3.2-1.03-2.25-.72-3.37-1.11-2.19-.89-3.2-1.49-1.91-1.28-2.69-2.04-1.41-1.71-1.87-2.86-.69-2.44-.69-3.87c0-1.74.25-3.31.76-4.69.51-1.39,1.32-2.64,2.43-3.75s2.65-1.98,4.61-2.59,4.3-.91,7.02-.91c4.55,0,7.92.72,10.13,2.17,2.2,1.45,3.31,3.43,3.31,5.96,0,1.18-.45,2.1-1.36,2.74s-1.97.97-3.19.97-2.17-.27-3.01-.82-1.25-1.31-1.25-2.29c.23-.8.06-1.53-.51-2.2s-1.29-1.16-2.17-1.49-1.76-.5-2.63-.5c-1.76,0-3.17.51-4.23,1.53s-1.59,2.33-1.59,3.93c0,.99.39,1.86,1.16,2.59s1.77,1.33,2.99,1.8,2.57.92,4.05,1.36,2.96.94,4.43,1.5,2.82,1.22,4.04,1.96,2.21,1.73,2.98,2.98,1.15,2.7,1.15,4.35Z"/>
      </g>
    </g>
  </g>
</svg>